<svg xmlns="http://www.w3.org/2000/svg" xmlns:xlink="http://www.w3.org/1999/xlink" preserveAspectRatio="xMidYMid" width="468" height="180" viewBox="0 0 468 180">
  <defs>
    <style>
      .cls-1 {
        fill: #000;
      }

      .cls-1, .cls-2 {
        fill-rule: evenodd;
      }

      .cls-2 {
        fill: #ed1b2e;
      }
    </style>
  </defs>
  <path d="M461.183,79.571 L461.183,97.752 L457.429,97.752 L457.429,79.571 L450.642,79.571 L450.642,76.331 L468.000,76.331 L468.000,79.571 L461.183,79.571 ZM432.173,94.691 L444.666,79.571 L433.134,79.571 L433.134,76.331 L449.441,76.331 L449.441,79.181 L436.948,94.511 L449.741,94.511 L449.741,97.752 L432.173,97.752 L432.173,94.691 ZM426.317,86.081 C429.140,86.921 430.492,89.321 430.492,91.541 C430.492,96.342 426.227,98.262 421.963,98.262 C417.068,98.262 413.103,95.922 413.013,90.612 L416.767,90.612 C416.767,93.911 419.200,95.202 422.203,95.202 C425.506,95.202 426.738,93.582 426.738,91.962 C426.738,90.311 425.837,89.651 424.966,89.321 C423.464,88.751 421.512,88.361 418.569,87.552 C414.905,86.561 413.824,84.341 413.824,82.121 C413.824,77.831 417.788,75.821 421.662,75.821 C426.137,75.821 429.891,78.191 429.891,82.661 L426.137,82.661 C425.957,79.901 424.095,78.881 421.512,78.881 C419.770,78.881 417.578,79.511 417.578,81.671 C417.578,83.171 418.599,84.011 420.131,84.431 C420.461,84.521 425.206,85.751 426.317,86.081 ZM395.385,76.331 L410.822,76.331 L410.822,79.571 L399.139,79.571 L399.139,85.181 L409.951,85.181 L409.951,88.241 L399.139,88.241 L399.139,94.511 L411.032,94.511 L411.032,97.752 L395.385,97.752 L395.385,76.331 ZM391.212,92.112 C391.212,94.601 391.572,96.881 392.383,97.752 L388.359,97.752 C387.788,96.821 387.788,95.652 387.788,94.601 C387.788,90.671 386.977,88.931 383.524,88.931 L377.998,88.931 L377.998,97.752 L374.244,97.752 L374.244,76.331 L384.484,76.331 C389.169,76.331 391.572,78.491 391.572,82.121 C391.572,86.231 388.719,87.281 388.028,87.521 L388.028,87.581 C389.320,87.761 391.212,88.721 391.212,92.112 ZM384.094,79.391 L377.998,79.391 L377.998,86.081 L384.154,86.081 C386.527,86.081 387.818,84.911 387.818,82.661 C387.818,79.931 386.046,79.391 384.094,79.391 ZM355.325,76.331 L370.761,76.331 L370.761,79.571 L359.078,79.571 L359.078,85.181 L369.890,85.181 L369.890,88.241 L359.078,88.241 L359.078,94.511 L370.971,94.511 L370.971,97.752 L355.325,97.752 L355.325,76.331 ZM348.598,97.752 L341.570,87.521 L338.507,90.552 L338.507,97.752 L334.753,97.752 L334.753,76.331 L338.507,76.331 L338.507,86.081 L348.057,76.331 L352.682,76.331 L344.123,84.881 L353.283,97.752 L348.598,97.752 ZM327.306,86.081 C330.129,86.921 331.481,89.321 331.481,91.541 C331.481,96.342 327.216,98.262 322.951,98.262 C318.056,98.262 314.092,95.922 314.002,90.612 L317.756,90.612 C317.756,93.911 320.188,95.202 323.192,95.202 C326.495,95.202 327.727,93.582 327.727,91.962 C327.727,90.311 326.826,89.651 325.955,89.321 C324.453,88.751 322.501,88.361 319.558,87.552 C315.894,86.561 314.813,84.341 314.813,82.121 C314.813,77.831 318.777,75.821 322.651,75.821 C327.126,75.821 330.880,78.191 330.880,82.661 L327.126,82.661 C326.946,79.901 325.084,78.881 322.501,78.881 C320.759,78.881 318.567,79.511 318.567,81.671 C318.567,83.171 319.588,84.011 321.120,84.431 C321.450,84.521 326.195,85.751 327.306,86.081 ZM301.600,98.262 C295.173,98.262 291.329,93.161 291.329,87.041 C291.329,80.921 295.173,75.821 301.600,75.821 C308.027,75.821 311.871,80.921 311.871,87.041 C311.871,93.161 308.027,98.262 301.600,98.262 ZM301.600,78.881 C297.005,78.881 295.083,82.931 295.083,87.041 C295.083,91.151 297.005,95.202 301.600,95.202 C306.194,95.202 308.116,91.151 308.116,87.041 C308.116,82.931 306.194,78.881 301.600,78.881 ZM302.501,70.630 L305.924,70.630 L305.924,73.870 L302.501,73.870 L302.501,70.630 ZM297.335,70.630 L300.759,70.630 L300.759,73.870 L297.335,73.870 L297.335,70.630 ZM288.296,92.112 C288.296,94.601 288.657,96.881 289.468,97.752 L285.443,97.752 C284.873,96.821 284.873,95.652 284.873,94.601 C284.873,90.671 284.062,88.931 280.608,88.931 L275.082,88.931 L275.082,97.752 L271.329,97.752 L271.329,76.331 L281.569,76.331 C286.254,76.331 288.657,78.491 288.657,82.121 C288.657,86.231 285.804,87.281 285.113,87.521 L285.113,87.581 C286.404,87.761 288.296,88.721 288.296,92.112 ZM281.179,79.391 L275.082,79.391 L275.082,86.081 L281.239,86.081 C283.611,86.081 284.903,84.911 284.903,82.661 C284.903,79.931 283.131,79.391 281.179,79.391 ZM257.635,98.262 C251.208,98.262 247.364,93.161 247.364,87.041 C247.364,80.921 251.208,75.821 257.635,75.821 C264.062,75.821 267.906,80.921 267.906,87.041 C267.906,93.161 264.062,98.262 257.635,98.262 ZM257.635,78.881 C253.040,78.881 251.118,82.931 251.118,87.041 C251.118,91.151 253.040,95.202 257.635,95.202 C262.229,95.202 264.151,91.151 264.151,87.041 C264.151,82.931 262.229,78.881 257.635,78.881 ZM258.536,70.630 L261.959,70.630 L261.959,73.870 L258.536,73.870 L258.536,70.630 ZM253.370,70.630 L256.794,70.630 L256.794,73.870 L253.370,73.870 L253.370,70.630 ZM234.871,97.752 L227.724,76.331 L231.628,76.331 L237.003,93.281 L237.063,93.281 L242.559,76.331 L246.373,76.331 L239.046,97.752 L234.871,97.752 ZM217.634,92.112 C217.634,94.601 217.994,96.881 218.805,97.752 L214.781,97.752 C214.210,96.821 214.210,95.652 214.210,94.601 C214.210,90.671 213.399,88.931 209.946,88.931 L204.420,88.931 L204.420,97.752 L200.666,97.752 L200.666,76.331 L210.907,76.331 C215.592,76.331 217.994,78.491 217.994,82.121 C217.994,86.231 215.141,87.281 214.450,87.521 L214.450,87.581 C215.742,87.761 217.634,88.721 217.634,92.112 ZM210.516,79.391 L204.420,79.391 L204.420,86.081 L210.576,86.081 C212.949,86.081 214.240,84.911 214.240,82.661 C214.240,79.931 212.468,79.391 210.516,79.391 ZM192.588,92.082 L184.029,92.082 L182.017,97.752 L178.143,97.752 L186.372,76.331 L190.366,76.331 L198.624,97.752 L194.600,97.752 L192.588,92.082 ZM188.384,80.021 L188.294,80.021 L185.050,89.231 L191.597,89.231 L188.384,80.021 ZM172.737,97.752 L168.984,97.752 L168.984,89.351 L160.935,76.331 L165.289,76.331 L170.965,85.931 L176.551,76.331 L180.756,76.331 L172.737,89.351 L172.737,97.752 ZM156.341,95.232 C154.329,97.512 152.497,98.262 149.884,98.262 C143.458,98.262 139.614,93.161 139.614,87.041 C139.614,80.921 143.458,75.821 149.884,75.821 C154.569,75.821 158.504,78.311 159.074,83.141 L155.410,83.141 C155.050,80.321 152.587,78.881 149.884,78.881 C145.289,78.881 143.367,82.931 143.367,87.041 C143.367,91.151 145.289,95.202 149.884,95.202 C153.728,95.261 155.830,92.951 155.891,89.321 L150.185,89.321 L150.185,86.471 L159.314,86.471 L159.314,97.752 L156.912,97.752 L156.341,95.232 ZM132.527,92.082 L123.968,92.082 L121.955,97.752 L118.082,97.752 L126.310,76.331 L130.304,76.331 L138.563,97.752 L134.539,97.752 L132.527,92.082 ZM128.322,80.021 L128.232,80.021 L124.989,89.231 L131.536,89.231 L128.322,80.021 ZM112.497,81.221 L112.437,81.221 L106.490,97.752 L103.397,97.752 L97.451,81.221 L97.391,81.221 L97.391,97.752 L93.817,97.752 L93.817,76.331 L99.102,76.331 L105.019,93.101 L105.079,93.101 L110.845,76.331 L116.070,76.331 L116.070,97.752 L112.497,97.752 L112.497,81.221 Z" class="cls-1"/>
  <path d="M24.688,52.000 L24.688,76.501 L0.000,76.501 L0.000,97.752 L24.688,97.752 L24.688,122.125 L45.868,122.125 L45.868,97.752 L70.555,97.752 L70.555,76.501 L45.868,76.499 L45.868,52.000 L24.688,52.000 Z" class="cls-2"/>
</svg>
